<svg width="91" height="53" viewBox="0 0 91 53" fill="none" xmlns="http://www.w3.org/2000/svg">
<g filter="url(#filter0_d_577_10153)">
<path d="M17.8623 7.61975L17.8623 23.0361L4.04761 23.0361L8.10193 15.3279L0.999704 7.61975L17.8623 7.61975Z" fill="#81599C"/>
<path d="M58.7952 7.61975L58.7952 23.0361L72.6099 23.0361L68.5555 15.3279L75.6578 7.61975L58.7952 7.61975Z" fill="#81599C"/>
<path d="M13.8579 10.5211L17.8622 7.61975V26.64H13.8579V10.5211Z" fill="#493A52"/>
<path d="M62.7993 10.5211L58.7951 7.61975V26.64H62.7993V10.5211Z" fill="#493A52"/>
<path d="M25.5056 10.5084L25.5056 28.1355L13.0769 28.1355C13.0769 28.1355 11.9463 28.1355 11.9463 19.3219C11.9463 10.5084 13.0769 10.5084 13.0769 10.5084L25.5056 10.5084Z" fill="#AA75CB"/>
<path d="M51.2683 10.5084L51.2683 28.1355L63.3957 28.1355C63.3957 28.1355 64.4887 28.1355 64.4886 19.3219C64.4886 10.5084 63.3957 10.5084 63.3957 10.5084L51.2683 10.5084Z" fill="#AA75CB"/>
<path d="M37.5213 2.19963C38.9944 0.934477 41.1706 0.934477 42.6438 2.19963C43.5914 3.01352 44.8695 3.32855 46.0869 3.04829C47.9792 2.61265 49.9062 3.62398 50.6226 5.42882C51.0835 6.5899 52.0688 7.4628 53.277 7.78039C55.155 8.27406 56.3912 10.065 56.1869 11.9961C56.0554 13.2384 56.5222 14.4692 57.4444 15.3118C58.8779 16.6217 59.1402 18.7821 58.0618 20.397C57.3681 21.4358 57.2094 22.7426 57.6344 23.9173C58.2949 25.7433 57.5233 27.7781 55.8179 28.7069C54.7209 29.3044 53.9731 30.3877 53.8035 31.6254C53.5397 33.5492 51.9108 34.9923 49.9692 35.0222C48.7202 35.0414 47.5546 35.6531 46.8292 36.6702C45.7017 38.2511 43.5887 38.7719 41.8556 37.8961C40.7407 37.3326 39.4243 37.3326 38.3094 37.8961C36.5763 38.7719 34.4634 38.2511 33.3358 36.6702C32.6104 35.6531 31.4449 35.0414 30.1958 35.0222C28.2542 34.9923 26.6253 33.5492 26.3616 31.6254C26.1919 30.3877 25.4442 29.3044 24.3471 28.7069C22.6418 27.7781 21.8701 25.7433 22.5307 23.9173C22.9556 22.7426 22.7969 21.4358 22.1032 20.397C21.0249 18.7821 21.2872 16.6217 22.7207 15.3118C23.6428 14.4692 24.1096 13.2384 23.9782 11.9961C23.7738 10.065 25.01 8.27406 26.888 7.78039C28.0962 7.4628 29.0815 6.5899 29.5424 5.42882C30.2589 3.62398 32.1858 2.61265 34.0781 3.04829C35.2955 3.32855 36.5736 3.01352 37.5213 2.19963Z" fill="url(#paint0_linear_577_10153)"/>
<ellipse cx="39.9133" cy="19.8304" rx="14.0678" ry="14.0678" fill="#705100"/>
<mask id="mask0_577_10153" style="mask-type:alpha" maskUnits="userSpaceOnUse" x="26" y="7" width="29" height="29">
<ellipse cx="40.7954" cy="21.381" rx="14.1299" ry="14.1299" fill="#C28B37"/>
</mask>
<g mask="url(#mask0_577_10153)">
<ellipse cx="40.043" cy="19.8761" rx="14.1299" ry="14.1299" fill="url(#paint1_linear_577_10153)"/>
</g>
<ellipse cx="40.2518" cy="20" rx="11.017" ry="11.1864" fill="#A36D1D"/>
<ellipse opacity="0.8" cx="40.2516" cy="19.9999" rx="10.339" ry="10.1695" fill="url(#paint2_linear_577_10153)"/>
<path d="M41.3434 12.3077L40.2519 10.2311L39.1604 12.3077L37.1458 16.1403L33.1571 16.6145L30.7309 16.903L32.4041 18.6835L35.1685 21.625L34.4053 25.8843L33.9822 28.2458L36.1488 27.2153L40.2519 25.2639L44.355 27.2153L46.5175 28.2438L46.0988 25.8861L45.342 21.6249L48.1007 18.6824L49.7693 16.9026L47.3466 16.6145L43.358 16.1403L41.3434 12.3077Z" fill="url(#paint3_linear_577_10153)" stroke="#C18832" stroke-width="2.46626"/>
</g>
<defs>
<filter id="filter0_d_577_10153" x="0.0336013" y="0.284639" width="90.1164" height="52.5267" filterUnits="userSpaceOnUse" color-interpolation-filters="sRGB">
<feFlood flood-opacity="0" result="BackgroundImageFix"/>
<feColorMatrix in="SourceAlpha" type="matrix" values="0 0 0 0 0 0 0 0 0 0 0 0 0 0 0 0 0 0 127 0" result="hardAlpha"/>
<feOffset dx="6.76308" dy="6.76308"/>
<feGaussianBlur stdDeviation="3.86462"/>
<feComposite in2="hardAlpha" operator="out"/>
<feColorMatrix type="matrix" values="0 0 0 0 0 0 0 0 0 0 0 0 0 0 0 0 0 0 0.3 0"/>
<feBlend mode="normal" in2="BackgroundImageFix" result="effect1_dropShadow_577_10153"/>
<feBlend mode="normal" in="SourceGraphic" in2="effect1_dropShadow_577_10153" result="shape"/>
</filter>
<linearGradient id="paint0_linear_577_10153" x1="40.0825" y1="0" x2="40.0825" y2="40" gradientUnits="userSpaceOnUse">
<stop stop-color="#FFE178"/>
<stop offset="1" stop-color="#DD9F00"/>
</linearGradient>
<linearGradient id="paint1_linear_577_10153" x1="35.8453" y1="5.76264" x2="46.0148" y2="32.7118" gradientUnits="userSpaceOnUse">
<stop stop-color="#E4A400"/>
<stop offset="1" stop-color="#966301"/>
</linearGradient>
<linearGradient id="paint2_linear_577_10153" x1="40.2516" y1="9.83044" x2="40.2516" y2="30.1694" gradientUnits="userSpaceOnUse">
<stop stop-color="#FFEC86"/>
<stop offset="1" stop-color="#FFB802"/>
</linearGradient>
<linearGradient id="paint3_linear_577_10153" x1="40.2519" y1="17.1295" x2="40.2519" y2="25.5391" gradientUnits="userSpaceOnUse">
<stop stop-color="#FEFFC5"/>
<stop offset="0.161458" stop-color="#FFFAC5"/>
<stop offset="1" stop-color="#FFD585"/>
</linearGradient>
</defs>
</svg>
